<svg width="30" height="44" viewBox="0 0 30 44" fill="none" xmlns="http://www.w3.org/2000/svg">
<path d="M14.5476 2.79121L15.7629 0.954462C15.8968 0.755615 16.1184 0.633857 16.3572 0.633128L18.836 0.625562L21.4815 1.24644L24.5839 0.608018L26.1143 0.603347C26.686 0.601601 27.031 1.23959 26.7163 1.71815L21.7413 9.22691L14.8172 10.6842L14.5476 2.79121Z" fill="#4FABF7"/>
<path d="M26.1142 0.603089L24.1231 0.609166C24.6948 0.607421 25.0399 1.24541 24.7252 1.72397L19.7501 9.23273L14.8058 10.2736L14.8205 10.6839L21.7412 9.22665L26.7163 1.71789C27.0309 1.23933 26.6859 0.601343 26.1142 0.603089Z" fill="#1886EA"/>
<path d="M15.9868 4.93935L18.8459 0.62551L24.5871 0.607986L18.8722 9.23565L16.0033 9.2444L15.9901 4.93934L15.9868 4.93935Z" fill="#D3DCFB"/>
<path d="M24.5843 0.607958L24.1201 0.609375C24.2681 0.608923 24.3994 0.652246 24.5073 0.722548L24.5843 0.607958Z" fill="#BEC8F7"/>
<path d="M18.8728 9.23574L13.3182 0.961997C13.1864 0.76396 12.9607 0.643568 12.7219 0.644297L10.2364 0.651883L7.74218 1.10682L4.4952 0.669408L2.96488 0.674079C2.39312 0.675824 2.05201 1.3159 2.37298 1.79252L7.39041 9.27079L13.2119 10.2149L18.8728 9.23574Z" fill="#9BD8F9"/>
<path d="M13.3188 0.962013C13.187 0.763976 12.9613 0.643584 12.7225 0.644313L10.7314 0.650391C10.9702 0.649662 11.196 0.770054 11.3311 0.96808L16.879 9.24184L12.203 10.0499L13.2125 10.215L18.8701 9.23577L13.3188 0.962013Z" fill="#73C3F9"/>
<path d="M13.2128 10.215L10.265 9.73628L10.2636 9.26205L4.49609 0.669434L10.2373 0.65191L16.0048 9.24452L16.0063 9.7322L13.2128 10.215Z" fill="#E9EFFF"/>
<path d="M11.7021 11.3462L17.4434 11.3287L17.4609 17.0833L11.7197 17.1009L11.7021 11.3462Z" fill="#FFB332"/>
<path d="M28.2488 30.8672L28.393 30.7221C29.1776 29.9327 29.1737 28.658 28.3843 27.8768L28.2393 27.7326C27.6624 27.1592 27.4882 26.292 27.7953 25.541L27.8721 25.3524C28.2928 24.3253 27.8015 23.1463 26.7744 22.7256L26.5858 22.6489C25.8314 22.3384 25.3415 21.6066 25.339 20.7927L25.3384 20.5842C25.335 19.4709 24.4309 18.5723 23.3176 18.5757L23.1158 18.5763C22.3019 18.5788 21.5672 18.09 21.2521 17.3409L21.1742 17.1528C20.7473 16.1283 19.5652 15.6442 18.5407 16.0711L18.3526 16.1491C17.6002 16.4641 16.7353 16.2919 16.1584 15.7185L16.0133 15.5743C15.2239 14.7897 13.9492 14.7936 13.1679 15.583L13.017 15.7281C12.4436 16.305 11.5764 16.4792 10.8255 16.172L10.6369 16.0952C9.60976 15.6746 8.43072 16.1659 8.01007 17.193L7.93329 17.3816C7.6228 18.1359 6.89108 18.6258 6.07716 18.6283L5.87199 18.6289C4.75873 18.6323 3.86011 19.5365 3.8635 20.6497L3.86412 20.8515C3.86661 21.6655 3.3778 22.4002 2.62873 22.7152L2.44062 22.7932C1.41609 23.2201 0.932013 24.4021 1.35892 25.4266L1.43686 25.6147C1.75195 26.3672 1.57969 27.2321 1.00632 27.809L0.862144 27.9574C0.0775264 28.7468 0.0814172 30.0215 0.870829 30.8028L1.0159 30.9503C1.59279 31.5237 1.76697 32.3909 1.45983 33.1419L1.38305 33.3305C0.962401 34.3576 1.45369 35.5366 2.4808 35.9573L2.66938 36.0341C3.42372 36.3445 3.91364 37.0763 3.91613 37.8902L3.91675 38.0953C3.92015 39.2086 4.82428 40.1072 5.93754 40.1038L6.1427 40.1032C6.95663 40.1007 7.69134 40.5895 8.00642 41.3386L8.08435 41.5267C8.51126 42.5512 9.69328 43.0353 10.7178 42.6084L10.9059 42.5305C11.6583 42.2154 12.5233 42.3876 13.1001 42.961L13.2452 43.1052C14.0346 43.8898 15.3093 43.8859 16.0906 43.0965L16.2348 42.9515C16.8081 42.3746 17.6754 42.2004 18.4263 42.5075L18.6149 42.5843C19.642 43.005 20.8211 42.5137 21.2417 41.4866L21.3185 41.298C21.629 40.5436 22.3607 40.0537 23.1746 40.0512L23.3798 40.0506C24.4931 40.0472 25.3917 39.1431 25.3883 38.0298L25.3877 37.8246C25.3852 37.0107 25.874 36.276 26.623 35.9609L26.8112 35.883C27.8357 35.4561 28.3198 34.2741 27.8929 33.2496L27.8149 33.0614C27.5066 32.309 27.6754 31.4441 28.2488 30.8672Z" fill="#FFDD40"/>
<path d="M14.6445 36.5121C18.6066 36.5 21.8087 33.2783 21.7966 29.3162C21.7845 25.3541 18.5628 22.152 14.6008 22.1641C10.6387 22.1762 7.43656 25.3979 7.44866 29.36C7.46075 33.3221 10.6825 36.5242 14.6445 36.5121Z" fill="#FFB332"/>
<path d="M15.2601 25.4214L16.0993 27.1106C16.2042 27.3222 16.4065 27.4696 16.642 27.5025L18.5095 27.7692C19.0983 27.8515 19.336 28.5739 18.9101 28.9923L17.5621 30.3115C17.3944 30.4768 17.3178 30.7158 17.3588 30.9478L17.684 32.8067C17.7867 33.3916 17.1726 33.8408 16.6437 33.5666L14.9728 32.6939C14.764 32.5835 14.5151 32.5843 14.3035 32.6959L12.638 33.5789C12.1141 33.8563 11.4973 33.4108 11.593 32.8253L11.9069 30.9644C11.9465 30.7322 11.8684 30.4936 11.6998 30.3294L10.3437 29.0184C9.9153 28.606 10.1485 27.8822 10.7368 27.7929L12.6027 27.5148C12.8346 27.4805 13.0393 27.3319 13.143 27.1197L13.9719 25.4254C14.236 24.8931 14.9961 24.8908 15.2601 25.4214Z" fill="#FFDD40"/>
<path d="M20.4054 12.1002L8.74472 12.1358C8.00142 12.1381 7.39754 11.5379 7.39528 10.7946L7.39062 9.271L21.742 9.22719L21.7466 10.7508C21.7489 11.4941 21.1487 12.098 20.4054 12.1002Z" fill="#FFDD40"/>
<path d="M19.7539 9.23308L19.7584 10.7163C19.7607 11.4831 19.1404 12.1039 18.3769 12.1062L20.3647 12.1002C21.1315 12.0978 21.7484 11.4737 21.7461 10.7102L21.7416 9.22701L19.7539 9.23308Z" fill="#FFB332"/>
<path d="M28.384 27.8733L28.2389 27.7291C27.662 27.1557 27.4878 26.2885 27.795 25.5376L27.8718 25.349C28.2924 24.3219 27.8011 23.1428 26.774 22.7222L26.5854 22.6454C25.8311 22.3349 25.3412 21.6032 25.3387 20.7893L25.3381 20.5841C25.3347 19.4708 24.4305 18.5722 23.3173 18.5756L23.1155 18.5762C22.3015 18.5787 21.5668 18.0899 21.2518 17.3408L21.1738 17.1527C20.7469 16.1282 19.5649 15.6441 18.5404 16.071L18.3523 16.149C18.3321 16.1557 18.3153 16.1625 18.2951 16.1693C18.6792 16.38 18.9998 16.7188 19.1827 17.1554L19.2606 17.3435C19.5757 18.096 20.3104 18.5814 21.1244 18.5789L21.3295 18.5783C22.4428 18.5749 23.3469 19.4735 23.3503 20.5868L23.3509 20.792C23.3534 21.6059 23.8467 22.3376 24.5977 22.6481L24.7863 22.7249C25.8134 23.1455 26.3047 24.3246 25.884 25.3517L25.8072 25.5403C25.4967 26.2946 25.6743 27.1584 26.2512 27.7318L26.3962 27.876C27.1856 28.6606 27.1895 29.9353 26.4049 30.7214L26.2574 30.8732C25.684 31.4501 25.5151 32.3183 25.8268 33.0674L25.9048 33.2555C26.3317 34.28 25.8476 35.4621 24.8231 35.889L24.635 35.9669C23.8825 36.282 23.3971 37.0167 23.3996 37.8306L23.4002 38.0358C23.4036 39.149 22.505 40.0532 21.3917 40.0566L21.1866 40.0572C20.3726 40.0597 19.6409 40.553 19.3304 41.3039L19.2536 41.4925C19.0734 41.9303 18.7549 42.271 18.3721 42.484C18.3923 42.4907 18.4091 42.4974 18.4293 42.5041L18.6179 42.5808C19.645 43.0015 20.8241 42.5102 21.2447 41.4831L21.3215 41.2945C21.632 40.5402 22.3637 40.0502 23.1776 40.0478L23.3828 40.0471C24.4961 40.0437 25.3947 39.1396 25.3913 38.0263L25.3907 37.8212C25.3882 37.0073 25.877 36.2725 26.6261 35.9575L26.8142 35.8795C27.8387 35.4526 28.3228 34.2706 27.8959 33.2461L27.8179 33.058C27.5028 32.3055 27.6751 31.4406 28.2485 30.8637L28.3927 30.7187C29.1773 29.9326 29.1734 28.6579 28.384 27.8733Z" fill="#FFB332"/>
<path d="M14.6071 22.1644C14.264 22.1654 13.9244 22.1934 13.595 22.2415C17.0809 22.7219 19.7672 25.7071 19.7783 29.326C19.7893 32.945 17.1179 35.9432 13.6383 36.4482C13.9681 36.4943 14.3078 36.5201 14.6509 36.5191C18.6129 36.507 21.8151 33.2852 21.803 29.3232C21.7909 25.3545 18.5691 22.1523 14.6071 22.1644Z" fill="#FF9100"/>
</svg>
